<svg xmlns="http://www.w3.org/2000/svg" width="512" height="512" viewBox="0 0 512 512" fill="none"><path d="M96 56q0-16 16-16H328L416 128V456q0 16-16 16H112q-16 0-16-16Z" fill="#18181A" stroke="#3F3F46" stroke-width="2"/><path d="M328 40V116q0 12 12 12H416Z" fill="#3F3F46"/><path fill="#fff" d="M269.79 169.19L231.06 169.19A52.37 52.37 0 0 0 178.69 221.56L178.69 300.71A17.51 17.51 0 0 1 161.18 318.22L150.4 318.22L150.4 340.11L168.42 340.11A37.38 37.38 0 0 0 205.8 302.73L205.8 218.87A27.11 27.11 0 0 1 232.91 191.76L269.79 191.76ZM192.33 251.87L258.34 251.87L328.93 340.11L361.6 340.11L273.5 229.98L192.33 229.98ZM303.32 260.25L317.79 278.34L361.06 229.98L330.41 229.98ZM231.85 340.11L262.49 340.11L294.61 304.23L280.15 286.14Z"/><path fill="#A1A1AA" d="M216.4 428.44Q214.73 428.44 213.69 427.43Q212.66 426.42 212.66 424.83Q212.66 423.16 213.69 422.1Q214.73 421.05 216.4 421.05Q218.07 421.05 219.11 422.1Q220.14 423.16 220.14 424.83Q220.14 426.42 219.11 427.43Q218.07 428.44 216.4 428.44ZM242.8 428.44Q238.44 428.44 235.78 425.84Q233.12 423.25 233.12 418.76V413.04Q233.12 408.55 235.78 405.96Q238.44 403.36 242.8 403.36Q245.7 403.36 247.88 404.53Q250.06 405.69 251.27 407.78Q252.48 409.87 252.48 412.64V417H237.39V419.11Q237.39 421.75 238.84 423.25Q240.29 424.74 242.8 424.74Q244.91 424.74 246.28 423.95Q247.64 423.16 247.9 421.75H252.26Q251.82 424.83 249.22 426.64Q246.63 428.44 242.8 428.44ZM237.39 412.64V413.79H248.21V412.64Q248.21 409.87 246.8 408.38Q245.4 406.88 242.8 406.88Q240.2 406.88 238.8 408.38Q237.39 409.87 237.39 412.64ZM265.28 428V411.06H258.33V407.1H265.28V402.22Q265.28 399.31 267.18 397.6Q269.07 395.88 272.32 395.88H279.41V399.8H272.32Q269.64 399.8 269.64 402.26V407.1H279.41V411.06H269.64V428ZM284.42 428 293 415.55 285 403.8H290.06L294.59 410.88Q294.9 411.41 295.18 411.98Q295.47 412.56 295.64 412.91Q295.78 412.56 296.06 411.98Q296.35 411.41 296.66 410.88L301.19 403.8H306.25L298.24 415.59L306.78 428H301.67L296.74 420.39Q296.44 419.9 296.13 419.27Q295.82 418.63 295.64 418.23Q295.42 418.63 295.12 419.27Q294.81 419.9 294.46 420.39L289.53 428Z"/></svg>
